PathFileType	4	(X/Y/Z)	C:\Users\Basilio\Documents\Thesis Gigler\squatting_fais\c3dfiles\038\SLS_front_pre5\markers_experimental.trc
DataRate	CameraRate	NumFrames	NumMarkers	Units	OrigDataRate	OrigDataStartFrame	OrigNumFrames
200.000000	200.000000	4	61	mm	200.000000	957	1532
Frame#	Time	FHD			LBHD			RBHD			C7			T10			CLAV			LSHO			LUUPA			LMUPA			LDUPA			LLEP			LMEP			LRAD			LUL			LRFIN			RSHO			RUPA1			RMUPA			RDUPA			RLEP			RMEP			RRAD			RUL			RUFIN			LASI			RASI			USACR			LSACR			RSACR			LTHI1			LTHI2			LTHI3			LTHI4			LLFC			LMFC			LTIB1			LTIB2			LTIB3			LTIB4			LLMAL			LMMAL			LHEE			LMT1			LMT2			LMT5			RTHI			RTHI2			RTHI3			RTHI4			RLFC			RMFC			RTIB1			RTIB2			RTIB3			RTIB4			RLMAL			RMMAL			RHEE			RMT1			RMT2			RMT5			
		X1	Y1	Z1	X2	Y2	Z2	X3	Y3	Z3	X4	Y4	Z4	X5	Y5	Z5	X6	Y6	Z6	X7	Y7	Z7	X8	Y8	Z8	X9	Y9	Z9	X10	Y10	Z10	X11	Y11	Z11	X12	Y12	Z12	X13	Y13	Z13	X14	Y14	Z14	X15	Y15	Z15	X16	Y16	Z16	X17	Y17	Z17	X18	Y18	Z18	X19	Y19	Z19	X20	Y20	Z20	X21	Y21	Z21	X22	Y22	Z22	X23	Y23	Z23	X24	Y24	Z24	X25	Y25	Z25	X26	Y26	Z26	X27	Y27	Z27	X28	Y28	Z28	X29	Y29	Z29	X30	Y30	Z30	X31	Y31	Z31	X32	Y32	Z32	X33	Y33	Z33	X34	Y34	Z34	X35	Y35	Z35	X36	Y36	Z36	X37	Y37	Z37	X38	Y38	Z38	X39	Y39	Z39	X40	Y40	Z40	X41	Y41	Z41	X42	Y42	Z42	X43	Y43	Z43	X44	Y44	Z44	X45	Y45	Z45	X46	Y46	Z46	X47	Y47	Z47	X48	Y48	Z48	X49	Y49	Z49	X50	Y50	Z50	X51	Y51	Z51	X52	Y52	Z52	X53	Y53	Z53	X54	Y54	Z54	X55	Y55	Z55	X56	Y56	Z56	X57	Y57	Z57	X58	Y58	Z58	X59	Y59	Z59	X60	Y60	Z60	X61	Y61	Z61	

958	4.785	-195.1537322998047	1512.598754882813	-1119.257690429688	-349.3724365234376	1461.811157226563	-1183.629150390625	-345.2178344726563	1450.335205078125	-1038.826538085938	-409.1923828125001	1304.561279296875	-1109.488159179688	-468.9863891601564	1030.785766601563	-1066.4462890625	-264.2127075195313	1263.469116210938	-1111.109008789063	-317.7924499511719	1303.368774414063	-1253.3544921875	-148.8360595703125	1253.996215820313	-1376.442016601563	-124.2379913330078	1288.001220703125	-1346.742065429688	-80.23569488525392	1264.39697265625	-1379.64990234375	-17.63498115539551	1269.984741210938	-1377.610229492188	-5.235369205474854	1195.650756835938	-1355.363647460938	nan	nan	nan	273.1686096191407	1298.036865234375	-1316.444213867188	323.5137634277344	1310.70849609375	-1218.47119140625	-309.1968383789063	1318.529541015625	-977.6858520507815	-159.6681518554688	1304.614501953125	-850.890075683594	-123.0717010498047	1309.976684570313	-882.621765136719	-93.2802200317383	1302.022705078125	-830.1734619140627	-20.04706001281739	1299.434448242188	-816.8741455078127	-13.84105014801026	1220.013671875	-825.967468261719	258.0040283203126	1289.153076171875	-891.062927246094	267.5019226074219	1309.84716796875	-824.1138305664065	337.8370056152344	1323.678100585938	-897.8950195312502	-299.9856262207032	841.3660278320315	-1140.76953125	-348.0079956054688	867.1735839843752	-894.3960571289065	-489.6023254394532	866.4909667968752	-1042.281372070313	-491.6958007812501	832.4661254882815	-1069.187133789063	-501.038299560547	835.8520507812502	-1013.247192382813	-167.7865905761719	577.6862182617189	-1194.351928710938	-94.26097869873048	532.9226684570314	-1190.165771484375	-61.45017623901369	562.4014892578126	-1165.33056640625	-88.33705902099611	473.8953552246095	-1173.6787109375	-64.52398681640626	427.3439941406251	-1159.122436523438	-59.87160873413087	431.8524780273439	-1042.470947265625	-119.5910720825196	266.7643127441407	-1062.00048828125	-180.6497802734375	247.7513580322266	-1125.568969726563	-152.4787292480469	227.778305053711	-1091.435180664063	-210.2052001953126	177.861801147461	-1054.728881835938	-354.5017700195313	111.8847045898438	-1073.708374023438	-315.0137329101563	124.0258712768555	-998.7949829101565	-416.8623657226564	94.86000061035158	-1015.689025878906	-214.5537109375001	42.87763595581055	-1016.505187988281	-208.3956298828126	44.53573226928712	-1067.700927734375	-256.4895019531251	34.51862716674805	-1111.536376953125	-227.3933105468751	651.6237792968751	-829.9417114257815	-160.3433837890625	648.8405151367189	-827.626159667969	-141.8505249023438	675.7733764648439	-832.5408325195315	-114.4437866210938	576.7147827148439	-843.3653564453127	3.648906707763673	509.642547607422	-853.165466308594	7.982847213745119	512.7870483398439	-974.7677001953127	167.0760803222657	427.2326965332032	-875.3062744140627	174.0294342041016	315.0175781250001	-843.8830566406252	202.6207733154297	351.6646423339844	-851.4180297851565	249.3043212890626	328.7166442871094	-878.9630126953127	298.6357421875001	196.0455932617188	-850.7075805664065	315.5576477050782	230.2672424316407	-929.0598754882815	311.7122497558594	120.1926498413086	-916.9834594726565	433.2675170898439	298.5635070800782	-888.3767089843752	422.6841125488282	298.5300903320313	-841.5756835937502	412.1910095214845	250.1451721191407	-801.2773437500002	
959	4.79	-195.3816070556641	1513.669677734375	-1119.261962890625	-349.4452819824219	1462.864868164063	-1183.78173828125	-345.3128356933594	1451.170288085938	-1039.051025390625	-409.418426513672	1305.421630859375	-1109.636474609375	-468.6494140625001	1031.78466796875	-1066.328125	-264.2068481445313	1264.228637695313	-1111.209350585938	-317.8101806640626	1304.101684570313	-1253.342041015625	-149.0238342285157	1254.737670898438	-1376.404541015625	-124.2244033813477	1288.86474609375	-1346.802978515625	-80.50135803222658	1265.246337890625	-1379.371948242188	-17.65755653381348	1270.602661132813	-1377.230102539063	-5.310556411743165	1196.490600585938	-1355.340942382813	nan	nan	nan	273.1960144042969	1298.853393554688	-1316.375854492188	323.5503845214844	1311.585083007813	-1218.433349609375	-309.2310485839844	1319.466430664063	-977.9013671875002	-160.1334533691407	1305.744873046875	-850.587097167969	-123.2162628173828	1310.820434570313	-882.6046142578127	-94.03370666503908	1302.52099609375	-830.1490478515627	-20.38424682617188	1300.261596679688	-816.8709106445315	-14.12068176269532	1220.936401367188	-825.847839355469	257.8539428710938	1289.615966796875	-890.6740722656252	267.4513244628907	1310.522338867188	-823.3906860351565	337.8111267089844	1324.377197265625	-897.486022949219	-299.8049926757813	842.3052978515627	-1140.901123046875	-347.9588623046876	867.9834594726565	-894.4429931640627	-489.5138549804689	867.765808105469	-1042.286376953125	-491.9759826660157	833.8751220703127	-1069.10498046875	-500.9355468750001	836.7871704101565	-1013.134399414063	-168.1762847900391	578.1964111328126	-1194.472778320313	-94.6896438598633	533.3861083984376	-1190.422485351563	-61.67858886718751	562.8023681640626	-1165.6103515625	-88.71823883056642	474.3541259765626	-1173.782104492188	-64.98764801025392	427.7678527832032	-1159.213012695313	-60.31579971313478	432.3791809082032	-1042.700561523438	-119.9610824584961	267.1450805664063	-1062.130737304688	-180.9160461425782	247.9528045654297	-1125.646484375	-152.6198425292969	227.9516601562501	-1091.517700195313	-210.3277435302735	177.9328308105469	-1054.840209960938	-354.4863586425782	111.8469161987305	-1073.708984375	-315.0551757812501	124.003646850586	-998.931579589844	-416.8450317382814	94.89601898193361	-1015.710021972656	-214.5966339111329	42.88314819335938	-1016.50439453125	-208.4128112792969	44.50621414184571	-1067.737060546875	-256.5458679199219	34.52972793579102	-1111.60107421875	-227.1479644775391	652.4945068359376	-829.587341308594	-160.401596069336	649.5168457031251	-827.6646728515627	-141.9390869140625	676.3002929687501	-832.4961547851565	-114.5977478027344	577.3002319335939	-843.2835693359377	3.446892738342286	510.0256652832032	-853.0510864257815	7.812291622161867	513.4315795898439	-974.6646728515627	166.7506713867188	427.9591369628907	-874.872497558594	173.3584899902344	315.3396301269532	-843.688659667969	202.4640197753907	352.1214294433594	-851.2730712890627	248.8146362304688	328.7846984863282	-878.7984008789065	297.8106384277344	196.1617431640626	-850.711120605469	314.9018859863282	230.3498229980469	-928.8619384765627	310.9181213378907	120.7869949340821	-917.4502563476565	432.8275451660157	298.9075622558594	-888.1065063476565	422.180877685547	298.3774719238282	-841.312438964844	411.546356201172	250.0358886718751	-801.0579833984377	
960	4.795	-195.4495697021485	1514.552368164063	-1119.338745117188	-349.5321655273438	1463.660766601563	-1183.891479492188	-345.4610595703126	1451.902099609375	-1038.972412109375	-409.4440002441407	1306.2666015625	-1109.729370117188	-468.5587463378907	1032.543823242188	-1066.31396484375	-264.3345336914063	1265.185791015625	-1111.1943359375	-317.9279785156251	1304.90625	-1253.46484375	-148.939193725586	1255.412109375	-1376.468627929688	-124.3920211791992	1289.549560546875	-1346.741333007813	-79.92471313476564	1265.592163085938	-1379.682373046875	-18.13007926940918	1271.77783203125	-1377.639038085938	-5.374367237091065	1197.140380859375	-1355.3173828125	nan	nan	nan	273.1193847656251	1299.476440429688	-1316.290405273438	323.4501342773438	1312.235961914063	-1218.383178710938	-309.3575439453126	1320.295654296875	-977.933776855469	-160.0293884277344	1305.879760742188	-851.2143554687502	-123.3477630615235	1311.706298828125	-882.6959228515627	-94.05378723144533	1303.388061523438	-830.078063964844	-20.52913093566895	1300.92919921875	-816.8135375976565	-14.44389629364014	1221.698364257813	-825.6116943359377	257.6788635253907	1290.254272460938	-890.1575317382815	267.2294921875001	1311.020751953125	-822.9260864257815	337.6079101562501	1324.89599609375	-896.9927978515627	-299.7675170898438	842.9306640625002	-1140.826416015625	-347.9052429199219	868.7034301757815	-894.5083007812502	-489.5181579589845	868.6585693359377	-1042.210571289063	-491.795135498047	834.5454711914065	-1068.940673828125	-500.9232788085939	837.6691894531252	-1013.104187011719	-168.5322418212891	578.6806640625001	-1194.542236328125	-94.94106292724611	533.8889160156251	-1190.600341796875	-61.88017654418947	563.1120605468751	-1165.761962890625	-89.03865051269533	474.7198486328126	-1173.843505859375	-65.47738647460939	428.1253051757814	-1159.394897460938	-60.71596145629884	432.9851074218751	-1042.900512695313	-120.3118438720703	267.3552246093751	-1062.290649414063	-181.1822052001953	248.1801147460938	-1125.775390625	-152.7948760986328	228.1730346679688	-1091.54833984375	-210.4109191894532	178.1515350341797	-1054.92138671875	-354.8902587890626	112.2360763549805	-1073.736572265625	-314.8346557617188	124.2741088867188	-998.832214355469	-416.8197326660157	94.83125305175783	-1015.740295410156	-214.6375274658204	42.92174148559571	-1016.564575195313	-208.4217071533204	44.48292922973634	-1067.77880859375	-256.5111389160157	34.48567962646485	-1111.62841796875	-227.1511535644532	653.1817626953126	-829.6500244140627	-160.4791564941407	650.2053833007814	-827.396667480469	-141.9625244140625	676.9068603515626	-832.2498779296877	-114.7609405517578	578.0211181640626	-843.2479248046877	3.19822645187378	510.6453857421876	-852.8632812500002	7.765583515167238	514.2050781250001	-974.5833740234377	166.4422760009766	428.4232788085939	-874.753601074219	172.6377410888672	315.7812805175782	-843.6314697265627	201.7384033203126	352.2662658691407	-851.3664550781252	248.3038330078126	328.9465026855469	-878.691589355469	297.1068420410157	196.4015045166016	-850.7242431640627	314.2406616210938	230.515853881836	-928.7969970703127	312.4673461914063	119.4604644775391	-917.7229614257815	432.5723266601564	298.6811218261719	-887.9194335937502	421.5059814453126	298.3257141113282	-841.2000732421877	410.9272460937501	249.7308349609376	-800.7792968750002	
961	4.8	-195.5679473876954	1515.1826171875	-1119.267700195313	-349.6843261718751	1464.485717773438	-1183.93896484375	-345.6291809082032	1452.949829101563	-1039.14990234375	-409.4977111816407	1307.072998046875	-1109.78955078125	-468.6716308593751	1033.254150390625	-1066.30029296875	-264.3342895507813	1266.1630859375	-1111.318481445313	-317.8944702148438	1305.780151367188	-1253.58544921875	-148.91259765625	1256.215698242188	-1376.51611328125	-124.4317169189453	1290.368408203125	-1346.684326171875	-80.18235015869142	1266.53271484375	-1379.325805664063	-18.09871482849121	1272.520141601563	-1377.687622070313	-5.36166000366211	1197.950561523438	-1355.305297851563	nan	nan	nan	272.9300537109376	1300.283935546875	-1316.260986328125	323.3703918457032	1313.111206054688	-1218.245483398438	-309.7039184570313	1321.020141601563	-977.680603027344	-160.181381225586	1306.882690429688	-850.953063964844	-123.5105590820313	1312.562133789063	-882.6809082031252	-93.93838500976564	1304.281616210938	-830.236511230469	-20.61319351196289	1301.9521484375	-816.5998535156252	-14.71991539001465	1222.521362304688	-825.5909423828127	257.6336975097657	1290.992431640625	-889.7744140625002	267.0085754394532	1311.780029296875	-822.5357055664065	337.4908142089844	1325.325073242188	-896.4215087890627	-299.5961303710938	843.5401000976565	-1140.943969726563	-347.6412963867188	869.5595703125002	-894.4681396484377	-489.2662048339845	869.2471313476565	-1042.192504882813	-491.7564086914064	835.405212402344	-1068.951904296875	-500.8692016601564	838.6752929687502	-1013.0322265625	-168.6859283447266	579.1313476562501	-1194.67529296875	-95.28470611572267	534.4656372070314	-1190.731323242188	-62.26848220825197	563.4757690429689	-1165.884399414063	-89.38790130615236	475.0897827148439	-1173.927124023438	-65.88613891601564	428.5388488769532	-1159.470825195313	-61.00887298583986	433.4669799804689	-1043.10791015625	-120.5461120605469	267.6180419921876	-1062.328247070313	-181.5238952636719	248.3930206298829	-1125.90673828125	-152.9927673339844	228.3868103027344	-1091.602783203125	-210.5432586669922	178.3317565917969	-1055.098022460938	-354.9161376953126	112.2305068969727	-1073.797729492188	-315.1004333496094	124.1242218017578	-999.086120605469	-416.8321533203126	94.81353759765626	-1015.769775390625	-214.6479187011719	42.91804504394532	-1016.604675292969	-208.361068725586	44.47887420654298	-1067.857299804688	-256.5366210937501	34.42637634277344	-1111.70458984375	-227.6422119140626	653.7705078125001	-830.0922851562502	-160.5659332275391	651.0975341796876	-827.062194824219	-141.9910583496094	677.6916503906251	-832.2379150390627	-114.9110412597657	578.9291381835939	-843.2163085937502	2.966742277145386	511.4510803222657	-852.7808837890627	7.766504287719728	515.1173095703126	-974.4107055664065	166.2115020751953	428.8217163085939	-874.6928710937502	172.20458984375	316.0603332519532	-843.757263183594	201.3862762451172	352.5818786621094	-851.3254394531252	247.7764434814454	329.0432739257813	-878.5550537109377	296.4797973632813	196.4499969482422	-850.7488403320315	313.6184997558594	230.7436218261719	-928.7871704101565	311.7241210937501	119.5455856323242	-917.4865722656252	431.939910888672	298.6952819824219	-887.720153808594	420.8066406250001	298.2592163085938	-840.9864501953127	410.183563232422	249.8040924072266	-800.5789184570315	
